<svg id="Layer_1" data-name="Layer 1" xmlns="http://www.w3.org/2000/svg" viewBox="0 0 171.4 165"><defs><style>.cls-1{fill:#fff;stroke:#fff;stroke-miterlimit:10;}</style></defs><title>icon_design</title><path class="cls-1" d="M25.5,32.1a4.7,4.7,0,1,0-4.7-4.7A4.69,4.69,0,0,0,25.5,32.1Zm0-7.4a2.7,2.7,0,1,1-2.7,2.7A2.69,2.69,0,0,1,25.5,24.7Z" transform="translate(-14.2 -17.5)"/><path class="cls-1" d="M36.8,32.1a4.7,4.7,0,1,0-4.7-4.7A4.69,4.69,0,0,0,36.8,32.1Zm0-7.4a2.7,2.7,0,1,1-2.7,2.7A2.69,2.69,0,0,1,36.8,24.7Z" transform="translate(-14.2 -17.5)"/><path class="cls-1" d="M48.1,32.1a4.7,4.7,0,1,0-4.7-4.7A4.69,4.69,0,0,0,48.1,32.1Zm0-7.4a2.7,2.7,0,1,1-2.7,2.7A2.69,2.69,0,0,1,48.1,24.7Z" transform="translate(-14.2 -17.5)"/><path class="cls-1" d="M67.1,154h-37a1,1,0,0,0,0,2h37A1,1,0,0,0,67.1,154Z" transform="translate(-14.2 -17.5)"/><path class="cls-1" d="M67.1,159h-37a1,1,0,0,0,0,2h37A1,1,0,0,0,67.1,159Z" transform="translate(-14.2 -17.5)"/><path class="cls-1" d="M67.1,164h-37a1,1,0,0,0,0,2h37A1,1,0,0,0,67.1,164Z" transform="translate(-14.2 -17.5)"/><path class="cls-1" d="M67.1,169h-37a1,1,0,0,0,0,2h37A1,1,0,0,0,67.1,169Z" transform="translate(-14.2 -17.5)"/><path class="cls-1" d="M119.1,154h-37a1,1,0,0,0,0,2h37A1,1,0,0,0,119.1,154Z" transform="translate(-14.2 -17.5)"/><path class="cls-1" d="M119.1,159h-37a1,1,0,0,0,0,2h37A1,1,0,0,0,119.1,159Z" transform="translate(-14.2 -17.5)"/><path class="cls-1" d="M119.1,164h-37a1,1,0,0,0,0,2h37A1,1,0,0,0,119.1,164Z" transform="translate(-14.2 -17.5)"/><path class="cls-1" d="M119.1,169h-37a1,1,0,0,0,0,2h37A1,1,0,0,0,119.1,169Z" transform="translate(-14.2 -17.5)"/><path class="cls-1" d="M170.1,154h-37a1,1,0,1,0,0,2h37A1,1,0,0,0,170.1,154Z" transform="translate(-14.2 -17.5)"/><path class="cls-1" d="M170.1,159h-37a1,1,0,1,0,0,2h37A1,1,0,0,0,170.1,159Z" transform="translate(-14.2 -17.5)"/><path class="cls-1" d="M170.1,164h-37a1,1,0,1,0,0,2h37A1,1,0,0,0,170.1,164Z" transform="translate(-14.2 -17.5)"/><path class="cls-1" d="M170.1,169h-37a1,1,0,1,0,0,2h37A1,1,0,0,0,170.1,169Z" transform="translate(-14.2 -17.5)"/><path class="cls-1" d="M185,77.6V18H15V77.3a4.88,4.88,0,0,0-.3.7,2.39,2.39,0,0,0,.3.7V182H185V78.4c0-.1.1-0.3,0.1-0.4S185,77.7,185,77.6ZM183,180H17V79H80.4A19.86,19.86,0,0,0,120,79h63V180ZM100.2,80.4a12.52,12.52,0,0,1,12.2,10.1,17.9,17.9,0,0,1-24.4,0A12.52,12.52,0,0,1,100.2,80.4Zm-4.8-7.3a4.8,4.8,0,1,1,9.6,0A4.8,4.8,0,1,1,95.4,73.1Zm8.4,5.8a6.94,6.94,0,0,0,3.2-5.8,6.8,6.8,0,1,0-10.4,5.8,14.36,14.36,0,0,0-10.2,9.9,17.68,17.68,0,0,1-4.1-11.4,17.9,17.9,0,0,1,35.8,0A17.68,17.68,0,0,1,114,88.8,14.18,14.18,0,0,0,103.8,78.9ZM183,77H120.1a19.9,19.9,0,0,0-39.8,0H17V37H183V77Zm0-42H17V20H183V35Z" transform="translate(-14.2 -17.5)"/><path class="cls-1" d="M28,146H68V106H28v40Zm2-38H66v36H30V108Z" transform="translate(-14.2 -17.5)"/><path class="cls-1" d="M80,146h40V106H80v40Zm2-38h36v36H82V108Z" transform="translate(-14.2 -17.5)"/><path class="cls-1" d="M171,106H131v40h40V106Zm-2,38H133V108h36v36Z" transform="translate(-14.2 -17.5)"/></svg>