<svg id="Layer_1" data-name="Layer 1" xmlns="http://www.w3.org/2000/svg" viewBox="0 0 29 45"><defs><style>.cls-1,.cls-2,.cls-3{stroke:#fff;}.cls-1{stroke-linecap:round;}.cls-1,.cls-3{stroke-miterlimit:10;}.cls-2{stroke-linejoin:round;}</style></defs><title>icon_concept</title><path class="cls-1" d="M18,39v4a2,2,0,0,0,2,2H30a2,2,0,0,0,2-2V39H18Z" transform="translate(-10.5 -3.5)"/><path class="cls-2" d="M32,39V33c0-5.39,7-5.57,7-15a14,14,0,0,0-28,0c0,9.63,7,10.69,7,15v6" transform="translate(-10.5 -3.5)"/><path class="cls-1" d="M28,45a3,3,0,0,1-6,0" transform="translate(-10.5 -3.5)"/><line class="cls-3" x1="14.5" y1="19.5" x2="14.5" y2="32.5"/><polyline class="cls-1" points="10.5 15.5 14.5 19.5 18.5 15.5"/></svg>