<svg id="Layer_1" data-name="Layer 1" xmlns="http://www.w3.org/2000/svg" viewBox="0 0 161 152.4"><defs><style>.cls-1{fill:#fff;}</style></defs><title>icon_development</title><path class="cls-1" d="M100,107.2l-6.7-13,0.9-1.1a34.44,34.44,0,0,0,5-8.7l0.5-1.3,14.7-.6,1.1-8.7-14-4.2-0.2-1.4a33.22,33.22,0,0,0-2.6-9.7L98.1,57l10-10.8-5.3-7L89.9,46.1l-1.1-.9a32.8,32.8,0,0,0-8.7-5l-1.3-.5L78,25l-8.7-1.2-4.2,14-1.4.2a33,33,0,0,0-9.8,2.6l-1.3.6L41.8,31.3l-7,5.3,6.9,12.8-0.9,1.1a38.15,38.15,0,0,0-5.1,8.7l-0.5,1.4-14.5.5-1.2,8.7,13.8,4.4,0.2,1.4a36.37,36.37,0,0,0,2.6,9.8l0.6,1.3L26.8,97.3l5.3,7L45,97.7l1.1,0.9a36.75,36.75,0,0,0,8.8,5.1l1.4,0.5,0.5,14.5,8.7,1.2L69.9,106l1.4-.2a36.37,36.37,0,0,0,9.8-2.6l1.3-.6,10.6,10Zm-20-6.3a28.49,28.49,0,0,1-9.1,2.4l-3,.3L63.7,117l-4.5-.6-0.5-14-2.9-1.1a28.59,28.59,0,0,1-8.1-4.7l-2.4-1.9-12.5,6.5L30,97.6l9.6-10.2-1.2-2.8A29.19,29.19,0,0,1,36,75.5l-0.3-3L22.3,68.2l0.6-4.5L37,63.2l1.1-2.9a30,30,0,0,1,4.7-8.1l2-2.4L38.2,37.4l3.6-2.8,10.4,9.6L55,43a31.57,31.57,0,0,1,9-2.4l3.1-.3,4.1-13.5,4.5,0.6,0.6,14.2,2.8,1.1a30,30,0,0,1,8.1,4.7l2.4,1.9,12.5-6.7,2.8,3.6L95.3,56.7l1.2,2.8a31.57,31.57,0,0,1,2.4,9l0.4,3.1,13.6,4.1-0.6,4.5-14.2.6L97,83.7a32.55,32.55,0,0,1-4.6,8.1l-1.9,2.4L97,106.8l-3.6,2.8L83.1,100Z" transform="translate(-19.5 -23.8)"/><path class="cls-1" d="M67.5,56.9A15.15,15.15,0,0,0,58.4,60a14.86,14.86,0,0,0,9.1,26.7,15.15,15.15,0,0,0,9.1-3.1,14.45,14.45,0,0,0,5.7-9.9,14.79,14.79,0,0,0-2.9-11A15.27,15.27,0,0,0,67.5,56.9ZM79.8,73.5A11.89,11.89,0,0,1,75,81.7a12.2,12.2,0,0,1-7.5,2.6A12.44,12.44,0,0,1,59.9,62a12.2,12.2,0,0,1,7.5-2.6,12.46,12.46,0,0,1,9.9,4.9A12.16,12.16,0,0,1,79.8,73.5Z" transform="translate(-19.5 -23.8)"/><path class="cls-1" d="M85.7,57.9a22.83,22.83,0,0,0-18.2-9,22.44,22.44,0,0,0-13.9,4.7A23,23,0,0,0,67.5,94.8h0A22.89,22.89,0,0,0,90.2,74.9,23,23,0,0,0,85.7,57.9Zm2,16.6a20.22,20.22,0,0,1-7.8,13.6,20,20,0,0,1-12.4,4.2A20.45,20.45,0,1,1,83.7,59.4,20,20,0,0,1,87.7,74.5Z" transform="translate(-19.5 -23.8)"/><path class="cls-1" d="M164.2,140.7l0.5-1.3,14.7-.6,1.1-8.7-14-4.2-0.2-1.4a36.67,36.67,0,0,0-2.6-9.7l-0.6-1.3,10-10.8-5.3-7-12.9,6.9-1.1-.9a32.8,32.8,0,0,0-8.7-5l-1.3-.5-0.6-14.7-8.7-1.2-4.2,14-1.5.2a33,33,0,0,0-9.8,2.6l-1.3.6-10.8-9.9-7,5.3,6.9,12.8-0.9,1.1a38.15,38.15,0,0,0-5.1,8.7l-0.5,1.4-14.5.5-1.2,8.7,13.8,4.4,0.2,1.4a36.37,36.37,0,0,0,2.6,9.8l0.6,1.3-9.9,10.6,5.3,7L110,154l1.1,0.9a36.75,36.75,0,0,0,8.8,5.1l1.4,0.5,0.5,14.5,8.7,1.2,4.4-13.9,1.4-.2a36.37,36.37,0,0,0,9.8-2.6l1.3-.6,10.6,10,7-5.3-6.7-13,0.9-1.1A38.4,38.4,0,0,0,164.2,140.7Zm-2.4,22.1-3.6,2.8L147.9,156l-2.8,1.2a28.49,28.49,0,0,1-9.1,2.4l-3,.3-4.2,13.4-4.5-.6-0.5-14-2.9-1.1a28.59,28.59,0,0,1-8.1-4.7l-2.4-1.9-12.5,6.5-2.8-3.6,9.6-10.2-1.2-2.8a29.19,29.19,0,0,1-2.4-9.1l-0.3-3-13.4-4.3L88,120l14.1-.5,1.1-2.9a30,30,0,0,1,4.7-8.1l2-2.4-6.6-12.4,3.6-2.8,10.4,9.6,2.8-1.2a31.57,31.57,0,0,1,9-2.4l3.1-.3,4.1-13.5,4.5,0.6,0.6,14.2,2.8,1.1a30,30,0,0,1,8.1,4.7l2.4,1.9,12.5-6.7,2.8,3.6L160.4,113l1.2,2.8a31.57,31.57,0,0,1,2.4,9l0.4,3.1L178,132l-0.6,4.5-14.2.6-1.1,2.9a32.55,32.55,0,0,1-4.6,8.1l-1.9,2.4Z" transform="translate(-19.5 -23.8)"/><path class="cls-1" d="M132.5,113.3a15.15,15.15,0,0,0-9.1,3.1,14.86,14.86,0,0,0,9.1,26.7,15.15,15.15,0,0,0,9.1-3.1A14.86,14.86,0,0,0,132.5,113.3ZM140,138a12.2,12.2,0,0,1-7.5,2.6,12.44,12.44,0,0,1-7.6-22.3,12.2,12.2,0,0,1,7.5-2.6,12.46,12.46,0,0,1,9.9,4.9A12.32,12.32,0,0,1,140,138Z" transform="translate(-19.5 -23.8)"/><path class="cls-1" d="M132.5,105.2a22.44,22.44,0,0,0-13.9,4.7,23,23,0,0,0,13.9,41.2h0a22.89,22.89,0,0,0,22.7-19.9A22.91,22.91,0,0,0,132.5,105.2Zm20.3,25.7a20.22,20.22,0,0,1-7.8,13.5,20,20,0,0,1-12.4,4.2,20.45,20.45,0,1,1,16.2-32.9A21.08,21.08,0,0,1,152.8,130.9Z" transform="translate(-19.5 -23.8)"/></svg>